# xmcd CD database file
#
# Track frame offsets:
#	183
#	68433
#	96720
#	137320
#	208183
#	221670
#	232083
#	250315
#
# Disc length: 3569 seconds
#
# Revision: 0
# Processed by: cddbd v1.5.1PL0 Copyright (c) Steve Scherf et al.
# Submitted via: CDex 1.51
#
DISCID=780def08
DTITLE=Dynamic Evolving Impulse - IDE5 - The Expanding Consciousness
DYEAR=1996
DGENRE=New Age
TTITLE0=The Complaint of the Earth
TTITLE1=Reserve
TTITLE2=Impregnation
TTITLE3=Confidence and Peace
TTITLE4=Mechanisms
TTITLE5=Contact
TTITLE6=Reminiscence
TTITLE7=Persistency
EXTD=YEAR: 1996
EXTT0=
EXTT1=
EXTT2=
EXTT3=
EXTT4=
EXTT5=
EXTT6=
EXTT7=
PLAYORDER=
